<svg width="54" height="54" viewBox="0 0 54 54" fill="none" xmlns="http://www.w3.org/2000/svg">
<circle cx="27" cy="27" r="27" fill="#02DDF1"/>
<g clip-path="url(#clip0)">
<path fill-rule="evenodd" clip-rule="evenodd" d="M21.2178 35.5947C18.7928 34.0082 17.1238 31.8376 16.4773 29.0232C15.4946 24.7492 16.6965 21.09 20.0048 18.1915C21.9394 16.4968 24.2528 15.6713 26.9517 15.6403C26.2155 16.554 25.551 17.3854 24.8792 18.2108C24.5756 18.5846 24.3952 18.9974 24.4558 19.4839C24.5385 20.1522 24.925 20.6045 25.5569 20.7914C26.2508 20.9976 26.8426 20.7773 27.3011 20.2094C28.7295 18.4357 30.1665 16.6692 31.5862 14.8886C32.2182 14.0965 32.1171 13.2152 31.3366 12.5731C30.5121 11.8945 29.6703 11.2373 28.8365 10.5698C27.9157 9.83219 27.005 9.08291 26.0725 8.36087C25.346 7.79882 24.3851 7.90882 23.8453 8.57983C23.2996 9.25842 23.4079 10.1974 24.1064 10.7918C24.3488 10.9984 24.6033 11.1921 24.8512 11.3914C25.2906 11.7432 25.73 12.0949 26.2401 12.5031C26.0427 12.5252 25.9638 12.5345 25.8859 12.5417C21.849 12.92 18.5307 14.6679 16.007 17.8188C11.7901 23.0831 12.0422 30.6828 16.5503 35.7129C17.5687 36.8498 18.3395 37.4105 19.6668 38.1642C20.4677 38.6194 21.3112 38.5832 21.7756 37.8305C21.7753 37.8308 22.8283 36.5074 21.2178 35.5947Z" fill="white"/>
<path fill-rule="evenodd" clip-rule="evenodd" d="M27.753 37.2176C30.3286 37.0072 32.5181 36.0928 34.3235 34.388C37.4085 31.4761 38.4705 27.8965 37.5162 23.7888C36.9552 21.3785 35.6151 19.4034 33.6272 17.8904C33.3353 17.6679 33.5122 17.819 33.2269 17.5893C32.5143 17.0162 32.2674 16.159 32.7719 15.4546C33.265 14.7646 34.4371 14.727 35.1916 15.2398C37.235 16.5466 38.2281 17.7321 39.3577 19.8717C43.0479 26.8628 40.3148 35.3507 33.22 38.9151C32.4564 39.2985 31.6358 39.592 30.8137 39.833C29.992 40.0733 29.135 40.1957 28.2627 40.3761C28.3126 40.4333 28.3669 40.5164 28.4407 40.5761C29.0844 41.0974 29.7344 41.6115 30.3781 42.1343C31.1451 42.7574 31.2912 43.7042 30.7355 44.4059C30.1876 45.0976 29.2441 45.2138 28.4715 44.609C26.6892 43.2142 24.9229 41.7984 23.1715 40.3647C22.4477 39.7726 22.3691 38.8954 22.9554 38.1555C24.3997 36.3338 25.8585 34.5232 27.3312 32.7239C27.9033 32.0247 28.8403 31.9322 29.5141 32.4522C30.2105 32.9905 30.3383 33.9218 29.7787 34.6594C29.2305 35.3821 28.6453 36.0766 28.0775 36.7848C27.9805 36.9038 27.8925 37.03 27.753 37.2176Z" fill="white"/>
</g>
<defs>
<clipPath id="clip0">
<rect width="28" height="37" fill="white" transform="translate(13 8)"/>
</clipPath>
</defs>
</svg>
