<svg width="25" height="26" viewBox="0 0 25 26" fill="none" xmlns="http://www.w3.org/2000/svg">
<path d="M10.7143 23.2143H22.3214C22.8571 23.2143 23.2143 22.8571 23.2143 22.3214V2.67857C23.2143 2.14286 22.8571 1.78571 22.3214 1.78571H10.7143C10.1786 1.78571 9.82143 1.42857 9.82143 0.892857C9.82143 0.357143 10.1786 0 10.7143 0H22.3214C23.8393 0 25 1.16071 25 2.67857V22.3214C25 23.8393 23.8393 25 22.3214 25H10.7143C10.1786 25 9.82143 24.6429 9.82143 24.1071C9.82143 23.5714 10.1786 23.2143 10.7143 23.2143Z" fill="white"/>
<path d="M0.892857 11.6071H15.7143L10.9821 6.87496C10.7143 6.51782 10.7143 5.98211 11.0714 5.62497C11.4286 5.35711 11.875 5.35711 12.2321 5.62497L18.4821 11.875C18.8393 12.2321 18.8393 12.7678 18.4821 13.125L12.2321 19.375C11.875 19.7321 11.25 19.6428 10.9821 19.2857C10.7143 18.9285 10.7143 18.4821 10.9821 18.125L15.7143 13.3928H0.892857C0.357143 13.3928 0 13.0357 0 12.5C0 11.9643 0.357143 11.6071 0.892857 11.6071Z" fill="white"/>
</svg>
