<svg width="19" height="12" viewBox="0 0 19 12" fill="none" xmlns="http://www.w3.org/2000/svg">
<path d="M18.1926 10.2246H0.785217V11.0057H18.1926V10.2246Z" fill="#CB001C"/>
<path d="M18.1926 9.44348H0.785217V10.2245H18.1926V9.44348Z" fill="white"/>
<path d="M18.1926 8.66296H0.785217V9.44351H18.1926V8.66296Z" fill="#CB001C"/>
<path d="M18.1926 7.88245H0.785217V8.66351H18.1926V7.88245Z" fill="white"/>
<path d="M18.1926 7.10083H0.785217V7.88241H18.1926V7.10083Z" fill="#CB001C"/>
<path d="M18.1926 6.32031H0.785217V7.10086H18.1926V6.32031Z" fill="white"/>
<path d="M18.1926 5.53821H0.785217V6.32031H18.1926V5.53821Z" fill="#CB001C"/>
<path d="M18.1926 4.75757H0.785217V5.53811H18.1926V4.75757Z" fill="white"/>
<path d="M18.1926 3.97656H0.785217V4.75762H18.1926V3.97656Z" fill="#CB001C"/>
<path d="M18.1926 3.19556H0.785217V3.97714H18.1926V3.19556Z" fill="white"/>
<path d="M18.1926 2.41455H0.785217V3.19561H18.1926V2.41455Z" fill="#CB001C"/>
<path d="M18.1926 1.6333H0.785217V2.41436H18.1926V1.6333Z" fill="white"/>
<path d="M18.1927 0.851807H0.785278V1.63339H18.1927V0.851807Z" fill="#CB001C"/>
<path d="M8.73489 0.851807H0.785278V6.32028H8.73489V0.851807Z" fill="#2A3560"/>
<path d="M1.50354 1.45447L1.57148 1.6614H1.78931L1.61297 1.7895L1.67988 1.99592L1.50354 1.86834L1.32721 1.99592L1.39618 1.7895L1.21985 1.6614H1.4356L1.50354 1.45447Z" fill="white"/>
<path d="M1.50354 2.3678L1.57148 2.5737H1.78931L1.61297 2.70076L1.67988 2.90873L1.50354 2.78063L1.32721 2.90873L1.39618 2.70076L1.21985 2.5737H1.4356L1.50354 2.3678Z" fill="white"/>
<path d="M1.50354 3.28058L1.57148 3.48648H1.78931L1.61297 3.61406L1.67988 3.82151L1.50354 3.69289L1.32721 3.82151L1.39618 3.61406L1.21985 3.48648H1.4356L1.50354 3.28058Z" fill="white"/>
<path d="M1.50354 4.19238L1.57148 4.39984H1.78931L1.61297 4.52742L1.67988 4.73332L1.50354 4.60625L1.32721 4.73332L1.39618 4.52742L1.21985 4.39984H1.4356L1.50354 4.19238Z" fill="white"/>
<path d="M1.50354 5.10522L1.57148 5.3132H1.78931L1.61297 5.43974L1.67988 5.64616L1.50354 5.51858L1.32721 5.64616L1.39618 5.43974L1.21985 5.3132H1.4356L1.50354 5.10522Z" fill="white"/>
<path d="M2.13934 1.9353L2.20417 2.14224H2.42304L2.24774 2.27034L2.3136 2.47676L2.13934 2.34969L1.96405 2.47676L2.02991 2.27034L1.85461 2.14224H2.07296L2.13934 1.9353Z" fill="white"/>
<path d="M2.13934 2.84851L2.20417 3.05441H2.42304L2.24774 3.18251L2.3136 3.38893L2.13934 3.26238L1.96405 3.38893L2.02991 3.18251L1.85461 3.05441H2.07296L2.13934 2.84851Z" fill="white"/>
<path d="M2.13934 3.76093L2.20417 3.96786H2.42304L2.24774 4.09544L2.3136 4.30186L2.13934 4.17428L1.96405 4.30186L2.02991 4.09544L1.85461 3.96786H2.07296L2.13934 3.76093Z" fill="white"/>
<path d="M2.13934 4.67419L2.20417 4.88061H2.42304L2.24774 5.00819L2.3136 5.21409L2.13934 5.08599L1.96405 5.21409L2.02991 5.00819L1.85461 4.88061H2.07296L2.13934 4.67419Z" fill="white"/>
<path d="M2.78186 1.45447L2.84928 1.6614H3.06711L2.89129 1.7895L2.95872 1.99592L2.78186 1.86834L2.6076 1.99592L2.6745 1.7895L2.49817 1.6614H2.71496L2.78186 1.45447Z" fill="white"/>
<path d="M2.78186 2.3678L2.84928 2.5737H3.06711L2.89129 2.70076L2.95872 2.90873L2.78186 2.78063L2.6076 2.90873L2.6745 2.70076L2.49817 2.5737H2.71496L2.78186 2.3678Z" fill="white"/>
<path d="M2.78186 3.28058L2.84928 3.48648H3.06711L2.89129 3.61406L2.95872 3.82151L2.78186 3.69289L2.6076 3.82151L2.6745 3.61406L2.49817 3.48648H2.71496L2.78186 3.28058Z" fill="white"/>
<path d="M2.78186 4.19238L2.84928 4.39984H3.06711L2.89129 4.52742L2.95872 4.73332L2.78186 4.60625L2.6076 4.73332L2.6745 4.52742L2.49817 4.39984H2.71496L2.78186 4.19238Z" fill="white"/>
<path d="M2.78186 5.10522L2.84928 5.3132H3.06711L2.89129 5.43974L2.95872 5.64616L2.78186 5.51858L2.6076 5.64616L2.6745 5.43974L2.49817 5.3132H2.71496L2.78186 5.10522Z" fill="white"/>
<path d="M3.41766 1.9353L3.48457 2.14224H3.70343L3.52606 2.27034L3.594 2.47676L3.41766 2.34969L3.24237 2.47676L3.31031 2.27034L3.13293 2.14224H3.35076L3.41766 1.9353Z" fill="white"/>
<path d="M3.41766 2.84851L3.48457 3.05441H3.70343L3.52606 3.18251L3.594 3.38893L3.41766 3.26238L3.24237 3.38893L3.31031 3.18251L3.13293 3.05441H3.35076L3.41766 2.84851Z" fill="white"/>
<path d="M3.41766 3.76093L3.48457 3.96786H3.70343L3.52606 4.09544L3.594 4.30186L3.41766 4.17428L3.24237 4.30186L3.31031 4.09544L3.13293 3.96786H3.35076L3.41766 3.76093Z" fill="white"/>
<path d="M3.41766 4.67419L3.48457 4.88061H3.70343L3.52606 5.00819L3.594 5.21409L3.41766 5.08599L3.24237 5.21409L3.31031 5.00819L3.13293 4.88061H3.35076L3.41766 4.67419Z" fill="white"/>
<path d="M4.06186 1.45447L4.1298 1.6614H4.34555L4.16922 1.7895L4.23923 1.99592L4.06186 1.86834L3.88604 1.99592L3.95295 1.7895L3.77869 1.6614H3.99496L4.06186 1.45447Z" fill="white"/>
<path d="M4.06186 2.3678L4.1298 2.5737H4.34555L4.16922 2.70076L4.23923 2.90873L4.06186 2.78063L3.88604 2.90873L3.95295 2.70076L3.77869 2.5737H3.99496L4.06186 2.3678Z" fill="white"/>
<path d="M4.06186 3.28058L4.1298 3.48648H4.34555L4.16922 3.61406L4.23923 3.82151L4.06186 3.69289L3.88604 3.82151L3.95295 3.61406L3.77869 3.48648H3.99496L4.06186 3.28058Z" fill="white"/>
<path d="M4.06186 4.19238L4.1298 4.39984H4.34555L4.16922 4.52742L4.23923 4.73332L4.06186 4.60625L3.88604 4.73332L3.95295 4.52742L3.77869 4.39984H3.99496L4.06186 4.19238Z" fill="white"/>
<path d="M4.06186 5.10522L4.1298 5.3132H4.34555L4.16922 5.43974L4.23923 5.64616L4.06186 5.51858L3.88604 5.64616L3.95295 5.43974L3.77869 5.3132H3.99496L4.06186 5.10522Z" fill="white"/>
<path d="M4.69824 1.9353L4.76515 2.14224H4.98194L4.80664 2.27034L4.8725 2.47676L4.69824 2.34969L4.52294 2.47676L4.58881 2.27034L4.41351 2.14224H4.6303L4.69824 1.9353Z" fill="white"/>
<path d="M4.69824 2.84851L4.76515 3.05441H4.98194L4.80664 3.18251L4.8725 3.38893L4.69824 3.26238L4.52294 3.38893L4.58881 3.18251L4.41351 3.05441H4.6303L4.69824 2.84851Z" fill="white"/>
<path d="M4.69824 3.76093L4.76515 3.96786H4.98194L4.80664 4.09544L4.8725 4.30186L4.69824 4.17428L4.52294 4.30186L4.58881 4.09544L4.41351 3.96786H4.6303L4.69824 3.76093Z" fill="white"/>
<path d="M4.69824 4.67419L4.76515 4.88061H4.98194L4.80664 5.00819L4.8725 5.21409L4.69824 5.08599L4.52294 5.21409L4.58881 5.00819L4.41351 4.88061H4.6303L4.69824 4.67419Z" fill="white"/>
<path d="M5.34027 1.45447L5.40821 1.6614H5.625L5.4497 1.7895L5.51764 1.99592L5.34027 1.86834L5.16601 1.99592L5.23188 1.7895L5.05658 1.6614H5.27337L5.34027 1.45447Z" fill="white"/>
<path d="M5.34027 2.3678L5.40821 2.5737H5.625L5.4497 2.70076L5.51764 2.90873L5.34027 2.78063L5.16601 2.90873L5.23188 2.70076L5.05658 2.5737H5.27337L5.34027 2.3678Z" fill="white"/>
<path d="M5.34027 3.28058L5.40821 3.48648H5.625L5.4497 3.61406L5.51764 3.82151L5.34027 3.69289L5.16601 3.82151L5.23188 3.61406L5.05658 3.48648H5.27337L5.34027 3.28058Z" fill="white"/>
<path d="M5.34027 4.19238L5.40821 4.39984H5.625L5.4497 4.52742L5.51764 4.73332L5.34027 4.60625L5.16601 4.73332L5.23188 4.52742L5.05658 4.39984H5.27337L5.34027 4.19238Z" fill="white"/>
<path d="M5.34027 5.10522L5.40821 5.3132H5.625L5.4497 5.43974L5.51764 5.64616L5.34027 5.51858L5.16601 5.64616L5.23188 5.43974L5.05658 5.3132H5.27337L5.34027 5.10522Z" fill="white"/>
<path d="M5.97669 1.9353L6.04359 2.14224H6.26245L6.08612 2.27034L6.15302 2.47676L5.97669 2.34969L5.80139 2.47676L5.86933 2.27034L5.69299 2.14224H5.91082L5.97669 1.9353Z" fill="white"/>
<path d="M5.97669 2.84851L6.04359 3.05441H6.26245L6.08612 3.18251L6.15302 3.38893L5.97669 3.26238L5.80139 3.38893L5.86933 3.18251L5.69299 3.05441H5.91082L5.97669 2.84851Z" fill="white"/>
<path d="M5.97669 3.76093L6.04359 3.96786H6.26245L6.08612 4.09544L6.15302 4.30186L5.97669 4.17428L5.80139 4.30186L5.86933 4.09544L5.69299 3.96786H5.91082L5.97669 3.76093Z" fill="white"/>
<path d="M5.97669 4.67419L6.04359 4.88061H6.26245L6.08612 5.00819L6.15302 5.21409L5.97669 5.08599L5.80139 5.21409L5.86933 5.00819L5.69299 4.88061H5.91082L5.97669 4.67419Z" fill="white"/>
<path d="M6.62097 1.45447L6.68891 1.6614H6.9057L6.7304 1.7895L6.79627 1.99592L6.62097 1.86834L6.44671 1.99592L6.51258 1.7895L6.33728 1.6614H6.55407L6.62097 1.45447Z" fill="white"/>
<path d="M6.62097 2.3678L6.68891 2.5737H6.9057L6.7304 2.70076L6.79627 2.90873L6.62097 2.78063L6.44671 2.90873L6.51258 2.70076L6.33728 2.5737H6.55407L6.62097 2.3678Z" fill="white"/>
<path d="M6.62097 3.28058L6.68891 3.48648H6.9057L6.7304 3.61406L6.79627 3.82151L6.62097 3.69289L6.44671 3.82151L6.51258 3.61406L6.33728 3.48648H6.55407L6.62097 3.28058Z" fill="white"/>
<path d="M6.62097 4.19238L6.68891 4.39984H6.9057L6.7304 4.52742L6.79627 4.73332L6.62097 4.60625L6.44671 4.73332L6.51258 4.52742L6.33728 4.39984H6.55407L6.62097 4.19238Z" fill="white"/>
<path d="M6.62097 5.10522L6.68891 5.3132H6.9057L6.7304 5.43974L6.79627 5.64616L6.62097 5.51858L6.44671 5.64616L6.51258 5.43974L6.33728 5.3132H6.55407L6.62097 5.10522Z" fill="white"/>
<path d="M7.2572 1.9353L7.32307 2.14224H7.54038L7.36612 2.27034L7.43095 2.47676L7.2572 2.34969L7.07983 2.47676L7.14777 2.27034L6.97351 2.14224H7.18926L7.2572 1.9353Z" fill="white"/>
<path d="M7.2572 2.84851L7.32307 3.05441H7.54038L7.36612 3.18251L7.43095 3.38893L7.2572 3.26238L7.07983 3.38893L7.14777 3.18251L6.97351 3.05441H7.18926L7.2572 2.84851Z" fill="white"/>
<path d="M7.2572 3.76093L7.32307 3.96786H7.54038L7.36612 4.09544L7.43095 4.30186L7.2572 4.17428L7.07983 4.30186L7.14777 4.09544L6.97351 3.96786H7.18926L7.2572 3.76093Z" fill="white"/>
<path d="M7.2572 4.67419L7.32307 4.88061H7.54038L7.36612 5.00819L7.43095 5.21409L7.2572 5.08599L7.07983 5.21409L7.14777 5.00819L6.97351 4.88061H7.18926L7.2572 4.67419Z" fill="white"/>
<path d="M7.89929 1.45447L7.96827 1.6614H8.18402L8.00872 1.7895L8.07667 1.99592L7.89929 1.86834L7.72503 1.99592L7.7909 1.7895L7.6156 1.6614H7.83239L7.89929 1.45447Z" fill="white"/>
<path d="M7.89929 2.3678L7.96827 2.5737H8.18402L8.00872 2.70076L8.07667 2.90873L7.89929 2.78063L7.72503 2.90873L7.7909 2.70076L7.6156 2.5737H7.83239L7.89929 2.3678Z" fill="white"/>
<path d="M7.89929 3.28058L7.96827 3.48648H8.18402L8.00872 3.61406L8.07667 3.82151L7.89929 3.69289L7.72503 3.82151L7.7909 3.61406L7.6156 3.48648H7.83239L7.89929 3.28058Z" fill="white"/>
<path d="M7.89929 4.19238L7.96827 4.39984H8.18402L8.00872 4.52742L8.07667 4.73332L7.89929 4.60625L7.72503 4.73332L7.7909 4.52742L7.6156 4.39984H7.83239L7.89929 4.19238Z" fill="white"/>
<path d="M7.89929 5.10522L7.96827 5.3132H8.18402L8.00872 5.43974L8.07667 5.64616L7.89929 5.51858L7.72503 5.64616L7.7909 5.43974L7.6156 5.3132H7.83239L7.89929 5.10522Z" fill="white"/>
</svg>
