<svg width="359" height="375" viewBox="0 0 359 375" fill="none" xmlns="http://www.w3.org/2000/svg">
<path d="M198.275 160.264C183.526 169.907 170.177 177.407 152.681 173.75C136.726 170.415 111.7 165.183 111.7 165.183L94.253 248.549C83.4216 300.303 124.946 358.146 153.335 375C153.335 375 153.337 375.001 153.339 374.999L198.278 160.27C198.277 160.268 198.275 160.267 198.275 160.264Z" fill="#EDEDED"/>
<path d="M234.638 190.883C217.625 187.327 208.619 176.071 198.278 160.27L153.339 374.999C186.112 370.927 247.347 334.569 258.178 282.817L275.625 199.452C275.625 199.452 251.601 194.429 234.638 190.883Z" fill="#E0E0E0"/>
<path d="M258.178 282.817L275.625 199.452C275.625 199.452 256.71 195.498 240.596 192.129C232.725 229.738 226.785 258.119 222.096 280.526C215.592 311.605 194.803 352.6 153.339 374.999C186.112 370.928 247.348 334.569 258.178 282.817Z" fill="#C4C4C4"/>
<path d="M129.895 278.596L136.655 288.19C142.337 296.26 141.18 308.708 132.432 320.604C120.115 337.349 97.3503 346.742 81.681 341.566C77.1426 340.062 73.6854 337.5 71.3652 334.209L64.6086 324.611C66.9255 327.903 70.3828 330.464 74.9211 331.969C90.5971 337.145 113.362 327.752 125.679 311.007C134.424 299.114 135.577 286.666 129.895 278.596Z" fill="#E19100"/>
<path d="M119.589 271.242C135.258 276.425 137.989 294.263 125.678 311.007C113.361 327.751 90.5963 337.145 74.9207 331.969C59.2547 326.789 56.5107 308.964 68.8246 292.22C81.1419 275.476 103.916 266.062 119.589 271.242Z" fill="#FCBA06"/>
<path d="M129.344 277.913C127.044 274.96 123.803 272.635 119.59 271.242C103.918 266.063 81.1434 275.476 68.8261 292.22C64.1297 298.605 61.642 305.145 61.2082 311.086L129.344 277.913Z" fill="#FFD05F"/>
<path d="M114.597 278.776L111.652 282.869C115.284 285.474 115.52 290.847 111.84 295.951L106.979 294.375C109.243 291.238 108.681 287.894 105.724 286.932C102.766 285.973 98.5198 287.753 96.2623 290.893C95.1614 292.423 94.6818 294.039 94.9183 295.445C95.1515 296.854 96.0716 297.882 97.508 298.345C103.141 300.178 104.205 306.553 99.8875 312.551C96.2003 317.671 89.7984 320.87 84.4844 320.591L81.7668 324.368L76.9061 322.791L79.6238 319.011C76.0022 316.39 75.7788 311.039 79.4661 305.919L84.3102 307.492C82.0359 310.645 82.5948 313.986 85.5526 314.948C88.5134 315.907 92.7595 314.123 95.0305 310.97C97.285 307.83 96.7294 304.49 93.7716 303.531C91.0506 302.647 89.3088 300.677 88.8585 297.987C88.4016 295.316 89.3154 292.239 91.4152 289.322C95.0928 284.215 101.494 280.992 106.795 281.288L109.737 277.199L114.597 278.776Z" fill="#FFE357"/>
<path d="M37.2604 266.919L32.0632 270.238C30.136 271.47 27.8429 272.196 25.2585 272.287C15.2231 272.636 4.53356 263.264 1.43453 251.398C-0.86648 242.587 1.65193 234.838 7.20933 231.287L12.4065 227.966C6.84876 231.518 4.32903 239.267 6.6307 248.077C9.73071 259.943 20.4206 269.318 30.455 268.967C33.0394 268.876 35.3328 268.15 37.2604 266.919Z" fill="#E19100"/>
<path d="M19.2119 225.918C29.2469 225.568 39.9368 234.942 43.0349 246.808C46.1356 258.673 40.4891 268.616 30.4557 268.967C20.421 269.318 9.73139 259.943 6.63137 248.077C3.53202 236.212 9.17585 226.269 19.2119 225.918Z" fill="#FCBA06"/>
<path d="M34.3009 232.326C29.874 228.226 24.4588 225.735 19.2118 225.918C9.17578 226.269 3.53195 236.212 6.63098 248.077C7.71831 252.241 9.7531 256.084 12.353 259.321L34.3009 232.326Z" fill="#FFD05F"/>
<path d="M22.7226 230.428L23.4755 233.306C26.5243 234.032 29.4182 236.969 30.3604 240.572L27.2742 240.679C26.6972 238.461 24.702 236.712 22.8246 236.777C20.9561 236.842 19.904 238.698 20.4827 240.918C20.7614 241.983 21.378 242.982 22.2179 243.717C23.0578 244.453 24.0122 244.841 24.9224 244.809C28.4994 244.684 32.3064 248.022 33.4109 252.252C34.3498 255.844 33.0292 258.939 30.4085 259.852L31.1029 262.51L28.0174 262.619L27.324 259.959C24.2873 259.246 21.3889 256.298 20.4483 252.704L23.5342 252.596C24.1102 254.805 26.1057 256.555 27.9739 256.489C29.8513 256.422 30.9034 254.568 30.3274 252.359C29.7464 250.141 27.7515 248.392 25.8741 248.457C24.1461 248.517 22.3139 247.783 20.7083 246.376C19.1034 244.967 17.9319 243.069 17.3991 241.025C16.4576 237.421 17.7808 234.338 20.3903 233.414L19.6378 230.536L22.7226 230.428Z" fill="#FFE357"/>
<path d="M247.674 183.218C246.271 184.797 246.231 186.171 242.474 187.133C238.718 188.096 237.217 187.949 235.483 188.458C233.749 188.968 228.397 190.008 228.744 190.821C229.091 191.633 235.413 191.025 235.425 191.688C235.436 192.351 222.259 201.867 225.131 203.334C228.002 204.801 236.266 206.146 242.838 201.316C247.233 198.086 249.604 193.087 252.652 191.451C254.425 187.085 251.744 183.924 247.674 183.218Z" fill="#F7D3C9"/>
<path d="M274.033 154.288C274.033 180.985 274.127 300.661 274.127 355.325C277.444 355.325 283.832 355.325 283.832 355.325C289.284 341.772 325.624 180.068 329.311 154.288C321.94 154.288 274.033 154.288 274.033 154.288Z" fill="#3353C4"/>
<path d="M283.832 358.874C283.832 356.917 283.832 355.325 283.832 355.325H274.127C274.002 358.633 273.386 360.407 273.015 361.778C275.538 362.748 279.23 360.245 283.832 358.874Z" fill="#F0CCC0"/>
<path d="M283.832 358.874C279.23 360.245 275.538 362.748 273.015 361.778C271.678 362.748 251.995 369.824 249.991 371.191C247.942 372.596 248.241 374.771 250.411 374.771C253.585 374.771 279.721 373.621 279.721 373.621C280.252 374.194 280.68 374.771 280.68 374.771H286.653C288.436 371.686 287.952 362.423 283.832 358.874Z" fill="#20196F"/>
<path d="M355.2 358.873C355.2 356.917 355.2 355.325 355.2 355.325H345.493C345.368 358.633 344.753 360.407 344.382 361.778C346.905 362.748 350.596 360.245 355.2 358.873Z" fill="#F0CCC0"/>
<path d="M355.2 358.873C350.596 360.245 346.905 362.748 344.382 361.778C343.045 362.748 323.361 369.823 321.357 371.191C319.309 372.596 319.609 374.771 321.779 374.771C324.95 374.771 351.089 373.62 351.089 373.62C351.617 374.194 352.046 374.771 352.046 374.771H358.02C359.801 371.685 359.319 362.422 355.2 358.873Z" fill="#20196F"/>
<path d="M340.098 143.664C355.2 177.971 355.2 300.661 355.2 355.325C351.884 355.325 345.494 355.325 345.494 355.325C340.043 341.772 294.022 180.069 290.339 154.288C297.708 154.287 340.098 143.664 340.098 143.664Z" fill="#4562E6"/>
<path d="M340.098 143.664C326.246 171.171 274.038 171.171 274.038 171.171C272.38 140.293 241.98 84.0038 247.667 66.1755C254.396 45.0795 264.485 43.1995 282.361 50.9084C306.468 61.3041 334.779 122.574 340.098 143.664Z" fill="#FCBA06"/>
<path d="M262.68 29.8871C263.561 33.2557 268.265 45.5317 272.379 47.9465C271.007 50.2175 261.477 56.4275 252.494 56.3998C253.343 53.6883 255.428 51.2617 251.857 48.4621C247.968 45.4133 246.17 52.2993 240.486 47.0305C233.856 40.8884 226.824 26.3754 228.756 20.7868C230.917 14.532 236.663 5.65426 250.013 7.70999C260.906 9.38556 260.89 23.041 262.68 29.8871Z" fill="#F8D8D0"/>
<path d="M251.617 25.7845C249.174 26.7964 247.87 19.8573 245.455 19.0403C242.601 18.074 235.049 19.857 228.435 23.3664C221.82 26.8706 213.921 19.5665 216.852 14.0654C219.788 8.56223 225.865 12.1277 228.724 9.71918C232.055 6.9137 229.516 2.49628 235.42 0.722457C240.873 -0.918825 240.428 4.93546 244.125 4.47518C247.936 4.00041 251.192 -2.5944 257.562 1.14119C262.289 3.91303 258.514 8.12735 260.79 12.3954C262.211 15.0598 272.433 20.5332 266.326 26.9998C260.213 33.4644 258.905 25.1215 258.043 21.8006C257.179 18.4821 254.919 16.9652 253.31 17.5306C251.704 18.0898 255.107 24.344 251.617 25.7845Z" fill="#264299"/>
<path d="M270.22 45.3925C268.748 47.0413 258.081 53.6025 253.224 52.8689C252.791 54.1716 252.523 55.2978 252.494 56.3997C255.896 56.9546 266.898 54.6101 272.632 48.0463C271.679 46.9833 270.22 45.3925 270.22 45.3925Z" fill="#ED9F00"/>
<path d="M275.804 61.598C270.718 66.4721 265.946 75.0903 270.758 89.5021C279.993 117.172 281.584 136.395 272.001 157.655C273.085 162.509 273.818 167.066 274.038 171.171C274.038 171.171 277.427 171.17 282.702 170.716C315.524 125.618 303.776 83.9363 295.088 65.1948C292.111 58.7727 280.888 56.7236 275.804 61.598Z" fill="#ED9F00"/>
<path d="M295.088 65.1947C292.559 58.5838 281.503 55.7694 276.096 60.2837C270.688 64.7981 265.336 73.0685 269.145 87.7757C279.088 126.158 273.008 154.113 246.244 185.082C246.244 185.082 251.133 191.662 253.401 194.715C310.971 146.086 303.564 87.3517 295.088 65.1947Z" fill="#FFD03E"/>
<path d="M253.394 195.222C253.394 195.222 245.77 184.474 245.167 183.844C246.819 181.693 249.971 178.446 251.033 177.542C252.736 179.326 261.385 189.333 261.366 189.752C260.367 190.626 253.394 195.222 253.394 195.222Z" fill="#FCBA06"/>
</svg>
