<svg width="206" height="40" viewBox="0 0 206 40" fill="none" xmlns="http://www.w3.org/2000/svg">
<g clip-path="url(#clip0)">
<path d="M82.0018 13.5709V39.1349H75.1979L74.4427 37.3267C72.3511 39.0226 69.7007 39.9997 66.7338 39.9997C58.9187 39.9997 53.3337 34.2969 53.3337 26.3519C53.3337 18.4348 58.9187 12.7991 66.7338 12.7991C69.7429 12.7991 72.4304 13.8045 74.541 15.547L75.4412 13.5695L82.0018 13.5709ZM73.6303 26.373C73.6303 23.0545 71.2073 20.5623 67.9093 20.5623C64.5928 20.5623 62.1905 23.0545 62.1905 26.373C62.1905 29.7112 64.6122 32.2028 67.9093 32.2028C71.2069 32.2031 73.6303 29.7112 73.6303 26.373Z" fill="white"/>
<path d="M126.748 23.1284V39.1625H117.947V24.2165C117.947 21.5469 116.965 20.2586 115.095 20.2586C112.676 20.2586 111.436 21.9248 111.436 25.1446V39.1621H102.863V24.2165C102.863 21.6273 101.887 20.2586 100.045 20.2586C97.6585 20.2586 96.3503 21.9657 96.3503 25.1446V39.1621H87.5497V13.5968H93.7387L94.9914 16.3439C96.8387 14.1915 99.5187 12.8423 102.462 12.8423C105.578 12.8423 108.199 14.2416 109.79 16.6044C111.626 14.2927 114.456 12.8423 117.637 12.8423C123.111 12.8423 126.748 17.1083 126.748 23.1284Z" fill="white"/>
<path d="M147.036 12.7994C154.905 12.7994 160.463 18.4538 160.463 26.3992C160.463 34.3449 154.905 39.9997 147.036 39.9997C144.054 39.9997 140.702 38.3236 138.625 36.5879L138.498 39.1621H131.984V4.36646H140.686V14.5623C142.516 13.432 144.672 12.7994 147.036 12.7994ZM151.58 26.3992C151.58 23.0599 149.156 20.5691 145.859 20.5691C142.562 20.5691 140.138 23.0599 140.138 26.3992C140.138 29.7102 142.562 32.2027 145.859 32.2027C149.135 32.2027 151.58 29.7105 151.58 26.3992Z" fill="white"/>
<path d="M173.298 13.597H164.496V39.1621H173.298V13.597Z" fill="white"/>
<path d="M177.346 26.3798C177.346 18.4555 183.341 12.7606 191.674 12.7606C199.978 12.7606 206 18.4555 206 26.3798C206 34.2776 199.978 40.0001 191.674 40.0001C183.341 40.0001 177.346 34.2776 177.346 26.3798ZM191.674 32.0901C194.883 32.0901 197.184 29.7596 197.184 26.3815C197.184 23.0212 194.882 20.6709 191.674 20.6709C188.463 20.6709 186.162 23.0004 186.162 26.3798C186.162 29.7596 188.463 32.0901 191.674 32.0901Z" fill="white"/>
<path d="M18.3122 30.0851C17.0194 30.2812 15.8929 30.5232 14.7549 30.6053C13.5481 30.6935 12.5976 30.1385 12.5483 28.8553C12.456 26.4336 12.5217 24.0054 12.5217 21.4414C14.775 21.4414 19.081 21.4414 21.2485 21.4414C21.2485 18.5246 21.2944 15.7499 21.2944 12.8358C19.046 12.8358 14.6974 12.8358 12.4186 12.8358C12.4186 10.2309 12.4213 5.64559 12.4213 3.13058C9.03821 3.1408 7.79945 3.06624 3.34025 3.13399C3.27151 5.80663 3.40696 10.3317 3.26504 12.9128C2.07018 12.9128 1.07135 12.9128 0.000366211 12.9128C0.000366211 15.7883 0.000366211 18.5685 0.000366211 21.5078C1.01009 21.5078 1.94869 21.5078 2.99551 21.5078C2.99551 24.5134 2.90465 27.3651 3.01729 30.2086C3.16737 33.9898 4.45956 37.2028 8.29631 38.6654C12.1351 40.1284 15.9501 39.5424 19.8021 38.295C19.2971 35.5103 18.8145 32.8537 18.3122 30.0851Z" fill="#FFBE12"/>
<path fill-rule="evenodd" clip-rule="evenodd" d="M51.8891 12.9543C50.0483 15.6415 48.2174 18.4892 46.3793 21.1693C45.5724 22.3466 44.8183 23.5672 43.9307 24.6802C43.2388 25.5477 43.2416 26.1322 43.9814 27.0304C46.9422 30.6148 49.7981 34.2863 52.6885 37.9286C52.8818 38.1717 53.0458 38.4393 53.3882 38.9354C52.0568 38.9354 50.9358 38.9354 49.8135 38.9354C47.5575 38.9354 45.2974 38.999 43.0466 38.8935C42.4258 38.8645 41.6451 38.4805 41.2527 38.0015C39.2101 35.51 37.2707 32.934 35.291 30.3907C35.0457 30.0755 34.7738 29.7803 34.5154 29.4749C34.4144 29.5106 34.313 29.5454 34.2119 29.5801C34.2119 32.6487 34.2119 35.717 34.2119 38.8591C31.0796 38.8591 28.0599 38.8591 24.9314 38.8591C24.9314 25.9208 24.9314 16.1648 24.9314 3.12952C29.1115 3.12952 31.5513 3.12952 34.2309 3.12952C34.2309 10.3701 34.2309 14.4506 34.2309 21.6919C34.3313 21.7239 34.4324 21.7563 34.5335 21.7883C35.6998 20.0577 40.2117 12.896 40.2117 12.896L51.8891 12.9543Z" fill="#FFBE12"/>
<path d="M171.121 4.67081L175.858 0C175.858 0 178.71 3.26606 175.734 5.53968C174.164 6.65572 171.272 5.49848 171.313 5.00243C171.354 4.50637 171.121 4.67081 171.121 4.67081Z" fill="#FFBE12"/>
<path d="M171.439 4.39175C173.69 6.3089 176.077 5.24835 176.077 5.24835C176.077 5.24835 176.077 5.24835 172.069 9.42345C169.631 11.9456 166.655 9.38192 166.655 9.38192L164.3 7.1083L169.134 2.09839L171.439 4.39175Z" fill="white"/>
</g>
<defs>
<clipPath id="clip0">
<rect width="206" height="40" fill="white"/>
</clipPath>
</defs>
</svg>
